<svg width="24" height="24" viewBox="0 0 24 24" fill="none" xmlns="http://www.w3.org/2000/svg">
<g clip-path="url(#clip0_8_231)">
<path d="M11.4855 9.37045C11.6505 8.87545 12.3495 8.87545 12.5145 9.37045L13.482 12.276C13.6949 12.9147 14.0537 13.495 14.5299 13.9709C15.0061 14.4469 15.5866 14.8053 16.2255 15.018L19.1295 15.9855C19.6245 16.1505 19.6245 16.8495 19.1295 17.0145L16.224 17.982C15.5853 18.1949 15.0049 18.5537 14.529 19.0299C14.053 19.5061 13.6946 20.0866 13.482 20.7255L12.5145 23.6295C12.4789 23.7378 12.41 23.8322 12.3176 23.8992C12.2252 23.9661 12.114 24.0021 12 24.0021C11.8859 24.0021 11.7747 23.9661 11.6823 23.8992C11.5899 23.8322 11.521 23.7378 11.4855 23.6295L10.518 20.724C10.3052 20.0854 9.94658 19.5052 9.47065 19.0293C8.99472 18.5533 8.4145 18.1948 7.77596 17.982L4.87046 17.0145C4.76207 16.9789 4.66768 16.91 4.60076 16.8176C4.53384 16.7252 4.49781 16.614 4.49781 16.5C4.49781 16.3859 4.53384 16.2747 4.60076 16.1823C4.66768 16.0899 4.76207 16.021 4.87046 15.9855L7.77596 15.018C8.4145 14.8051 8.99472 14.4466 9.47065 13.9706C9.94658 13.4947 10.3052 12.9145 10.518 12.276L11.4855 9.37045ZM5.69096 1.72195C5.71247 1.65699 5.7539 1.60047 5.80937 1.5604C5.86485 1.52034 5.93153 1.49877 5.99996 1.49877C6.06839 1.49877 6.13507 1.52034 6.19054 1.5604C6.24602 1.60047 6.28745 1.65699 6.30896 1.72195L6.88946 3.46495C7.14896 4.24195 7.75796 4.85095 8.53496 5.11045L10.278 5.69095C10.3429 5.71246 10.3994 5.7539 10.4395 5.80937C10.4796 5.86484 10.5011 5.93152 10.5011 5.99995C10.5011 6.06838 10.4796 6.13507 10.4395 6.19054C10.3994 6.24601 10.3429 6.28744 10.278 6.30895L8.53496 6.88945C8.15152 7.01671 7.80309 7.23174 7.51742 7.51741C7.23174 7.80308 7.01672 8.15151 6.88946 8.53495L6.30896 10.278C6.28745 10.3429 6.24602 10.3994 6.19054 10.4395C6.13507 10.4796 6.06839 10.5011 5.99996 10.5011C5.93153 10.5011 5.86485 10.4796 5.80937 10.4395C5.7539 10.3994 5.71247 10.3429 5.69096 10.278L5.11046 8.53495C4.9832 8.15151 4.76817 7.80308 4.4825 7.51741C4.19683 7.23174 3.8484 7.01671 3.46496 6.88945L1.72196 6.30895C1.657 6.28744 1.60047 6.24601 1.56041 6.19054C1.52034 6.13507 1.49878 6.06838 1.49878 5.99995C1.49878 5.93152 1.52034 5.86484 1.56041 5.80937C1.60047 5.7539 1.657 5.71246 1.72196 5.69095L3.46496 5.11045C3.8484 4.98319 4.19683 4.76817 4.4825 4.48249C4.76817 4.19682 4.9832 3.84839 5.11046 3.46495L5.69096 1.72195ZM16.2945 0.148451C16.3093 0.105741 16.337 0.0687051 16.3738 0.0424936C16.4107 0.0162821 16.4548 0.00219727 16.5 0.00219727C16.5452 0.00219727 16.5892 0.0162821 16.6261 0.0424936C16.6629 0.0687051 16.6907 0.105741 16.7055 0.148451L17.0925 1.30945C17.265 1.82845 17.6715 2.23495 18.1905 2.40745L19.3515 2.79445C19.3942 2.80926 19.4312 2.83701 19.4574 2.87384C19.4836 2.91067 19.4977 2.95475 19.4977 2.99995C19.4977 3.04516 19.4836 3.08924 19.4574 3.12607C19.4312 3.1629 19.3942 3.19064 19.3515 3.20545L18.1905 3.59245C17.9349 3.67795 17.7027 3.82163 17.5122 4.01218C17.3216 4.20272 17.178 4.43491 17.0925 4.69045L16.7055 5.85145C16.6907 5.89416 16.6629 5.9312 16.6261 5.95741C16.5892 5.98362 16.5452 5.99771 16.5 5.99771C16.4548 5.99771 16.4107 5.98362 16.3738 5.95741C16.337 5.9312 16.3093 5.89416 16.2945 5.85145L15.9075 4.69045C15.822 4.43491 15.6783 4.20272 15.4877 4.01218C15.2972 3.82163 15.065 3.67795 14.8095 3.59245L13.65 3.20545C13.6072 3.19064 13.5702 3.1629 13.544 3.12607C13.5178 3.08924 13.5037 3.04516 13.5037 2.99995C13.5037 2.95475 13.5178 2.91067 13.544 2.87384C13.5702 2.83701 13.6072 2.80926 13.65 2.79445L14.811 2.40745C15.33 2.23495 15.7365 1.82845 15.909 1.30945L16.2945 0.148451Z" fill="#38485C"/>
</g>
<defs>
<clipPath id="clip0_8_231">
<rect width="24" height="24" fill="white"/>
</clipPath>
</defs>
</svg>
